<svg width="28" height="28" viewBox="0 0 28 28" xmlns="http://www.w3.org/2000/svg">
  <g fill="none" stroke="#F5F5F5" stroke-width="1.4" stroke-linecap="round" stroke-linejoin="round">
    <path d="M5.5 7.5a8.5 3.75 0 1 0 17 0a8.5 3.75 0 1 0-17 0" />
    <path d="M5.5 12.25c0 2.07 3.81 3.75 8.5 3.75s8.5-1.68 8.5-3.75" />
    <path d="M5.5 17c0 2.07 3.81 3.75 8.5 3.75S22.5 19.07 22.5 17" />
    <path d="M5.5 7.5v9.5" />
    <path d="M22.5 7.5v9.5" />
  </g>
  <path d="M11.25 7.05l1.15.72 1.15-.72-.72 1.13 1.05.66-1.3.01-.38 1.17-.39-1.17-1.29-.01 1.05-.66-.72-1.13z" fill="#F5F5F5"/>
</svg>
